{"__type__":"cc.JsonAsset","_name":"song_content","json":{"header":{"PPQ":480,"bpm":180.00018000018,"timeSignature":[4,4],"name":""},"tempo":[{"absoluteTime":0,"seconds":0,"bpm":180.00018000018}],"timeSignature":[{"absoluteTime":0,"seconds":0,"numerator":4,"denominator":2,"click":24,"notesQ":8}],"startTime":0,"duration":215.99978400000234,"tracks":[{"startTime":0,"duration":0,"length":0,"notes":[],"controlChanges":{},"id":0},{"startTime":0,"duration":215.99978400000234,"length":575,"notes":[{"name":"C7","midi":96,"time":0,"velocity":0.7874015748031497,"duration":0.0006944437499999999},{"name":"C#7","midi":97,"time":0.1666665,"velocity":0.7874015748031497,"duration":0.0013888874999999912},{"name":"C7","midi":96,"time":0.333333,"velocity":0.7874015748031497,"duration":0.0006944437499999956},{"name":"D7","midi":98,"time":0.4999995,"velocity":0.7874015748031497,"duration":0.0006944437499999956},{"name":"C#7","midi":97,"time":0.666666,"velocity":0.7874015748031497,"duration":0.330555225},{"name":"C#7","midi":98,"time":0.999999,"velocity":0.7874015748031497,"duration":0.49722172500000006},{"name":"C#7","midi":97,"time":1.4999985,"velocity":0.7874015748031497,"duration":0.0006944437500000511},{"name":"C7","midi":96,"time":1.666665,"velocity":0.7874015748031497,"duration":0.0013888875000001022},{"name":"C#7","midi":97,"time":1.8333315000000001,"velocity":0.7874015748031497,"duration":0.0006944437500000511},{"name":"C7","midi":96,"time":1.9999980000000002,"velocity":0.7874015748031497,"duration":0.32986078124999985},{"name":"C#7","midi":97,"time":2.333331,"velocity":0.7874015748031497,"duration":0.4965272812500001},{"name":"C7","midi":96,"time":2.8333304999999998,"velocity":0.7874015748031497,"duration":0.0006944437500000511},{"name":"D7","midi":98,"time":2.9999969999999996,"velocity":0.7874015748031497,"duration":0.0006944437500000511},{"name":"C#7","midi":97,"time":3.1666634999999994,"velocity":0.7874015748031497,"duration":0.0013888875000001022},{"name":"D7","midi":98,"time":3.3333299999999997,"velocity":0.7874015748031497,"duration":0.3305552249999999},{"name":"C7","midi":96,"time":3.666663,"velocity":0.7874015748031497,"duration":0.49722172500000017},{"name":"C7","midi":96,"time":4.1666625,"velocity":0.7874015748031497,"duration":0.0013888875000001022},{"name":"D7","midi":98,"time":4.333329,"velocity":0.7874015748031497,"duration":0.33055522500000034},{"name":"C#7","midi":97,"time":4.6666620000000005,"velocity":0.7874015748031497,"duration":0.8305547249999998},{"name":"C7","midi":96,"time":5.499994500000001,"velocity":0.7874015748031497,"duration":0.32986078124999985},{"name":"C#7","midi":97,"time":5.8333275,"velocity":0.7874015748031497,"duration":0.000694443749999607},{"name":"D7","midi":98,"time":5.999994,"velocity":0.7874015748031497,"duration":0.32986078124999985},{"name":"C7","midi":96,"time":6.333327,"velocity":0.7874015748031497,"duration":0.4965272812499997},{"name":"C#7","midi":97,"time":6.833326499999999,"velocity":0.7874015748031497,"duration":0.33055522500000034},{"name":"D7","midi":98,"time":7.1666595,"velocity":0.7874015748031497,"duration":0.0013888875000001022},{"name":"C7","midi":96,"time":7.333326,"velocity":0.7874015748031497,"duration":0.33055522500000034},{"name":"C#7","midi":97,"time":7.666659,"velocity":0.7874015748031497,"duration":0.49722172500000017},{"name":"C7","midi":96,"time":8.1666585,"velocity":0.7874015748031497,"duration":0.33055522499999945},{"name":"C7","midi":96,"time":8.4999915,"velocity":0.7874015748031497,"duration":0.000694443749999607},{"name":"C#7","midi":97,"time":8.666658,"velocity":0.7874015748031497,"duration":0.33055522499999945},{"name":"C7","midi":96,"time":8.999991,"velocity":0.7874015748031497,"duration":0.4972217249999993},{"name":"D7","midi":98,"time":9.4999905,"velocity":0.7874015748031497,"duration":0.000694443749999607},{"name":"C#7","midi":97,"time":9.666656999999999,"velocity":0.7874015748031497,"duration":0.33055522499999945},{"name":"C7","midi":96,"time":9.999989999999999,"velocity":0.7874015748031497,"duration":0.4972217249999993},{"name":"C7","midi":96,"time":10.499989499999998,"velocity":0.7874015748031497,"duration":0.000694443749999607},{"name":"D7","midi":98,"time":10.666655999999998,"velocity":0.7874015748031497,"duration":0.33055522499999945},{"name":"C7","midi":96,"time":10.999988999999998,"velocity":0.7874015748031497,"duration":0.000694443749999607},{"name":"C7","midi":98,"time":11.166655499999997,"velocity":0.7874015748031497,"duration":0.4972217249999993},{"name":"D7","midi":98,"time":11.666654999999997,"velocity":0.7874015748031497,"duration":0.001388887499999214},{"name":"C7","midi":96,"time":11.833321499999997,"velocity":0.7874015748031497,"duration":0.000694443749999607},{"name":"C7","midi":98,"time":11.999987999999997,"velocity":0.7874015748031497,"duration":0.000694443749999607},{"name":"D7","midi":98,"time":12.166654499999996,"velocity":0.7874015748031497,"duration":0.001388887499999214},{"name":"C7","midi":98,"time":12.333320999999996,"velocity":0.7874015748031497,"duration":0.33055522499999945},{"name":"D7","midi":98,"time":12.666653999999996,"velocity":0.7874015748031497,"duration":0.4972217249999993},{"name":"C#7","midi":97,"time":13.166653499999995,"velocity":0.7874015748031497,"duration":0.001388887499999214},{"name":"C7","midi":96,"time":13.333319999999995,"velocity":0.7874015748031497,"duration":0.33055522499999945},{"name":"C7","midi":96,"time":13.666652999999995,"velocity":0.7874015748031497,"duration":0.001388887499999214},{"name":"C7","midi":96,"time":13.833319499999995,"velocity":0.7874015748031497,"duration":0.4965272812499997},{"name":"C7","midi":96,"time":14.333318999999994,"velocity":0.7874015748031497,"duration":0.000694443749999607},{"name":"C7","midi":96,"time":14.499985499999994,"velocity":0.7874015748031497,"duration":0.000694443749999607},{"name":"D7","midi":98,"time":14.666651999999994,"velocity":0.7874015748031497,"duration":0.33055522499999945},{"name":"C7","midi":96,"time":14.999984999999993,"velocity":0.7874015748031497,"duration":0.32986078124999985},{"name":"C7","midi":96,"time":15.333317999999993,"velocity":0.7874015748031497,"duration":0.33055522499999945},{"name":"D7","midi":98,"time":15.666650999999993,"velocity":0.7874015748031497,"duration":0.001388887499999214},{"name":"C7","midi":96,"time":15.833317499999993,"velocity":0.7874015748031497,"duration":0.000694443749999607},{"name":"C#7","midi":97,"time":15.999983999999992,"velocity":0.7874015748031497,"duration":0.0006944437500013834},{"name":"D7","midi":98,"time":16.167344943749995,"velocity":0.7874015748031497,"duration":0.3298607812500016},{"name":"C7","midi":98,"time":16.499983499999995,"velocity":0.7874015748031497,"duration":0.4972217249999993},{"name":"C#7","midi":97,"time":16.999982999999993,"velocity":0.7874015748031497,"duration":0.000694443749999607},{"name":"C7","midi":96,"time":17.167343943749994,"velocity":0.7874015748031497,"duration":0.000694443749999607},{"name":"C7","midi":98,"time":17.333315999999993,"velocity":0.7874015748031497,"duration":0.33055522500000123},{"name":"C7","midi":98,"time":17.666648999999992,"velocity":0.7874015748031497,"duration":0.33055522500000123},{"name":"D7","midi":98,"time":17.999981999999992,"velocity":0.7874015748031497,"duration":0.4972217249999993},{"name":"C7","midi":96,"time":18.49998149999999,"velocity":0.7874015748031497,"duration":0.000694443749999607},{"name":"C7","midi":96,"time":18.666647999999988,"velocity":0.7874015748031497,"duration":0.33055522500000123},{"name":"C7","midi":96,"time":18.999980999999988,"velocity":0.7874015748031497,"duration":0.000694443749999607},{"name":"C7","midi":96,"time":19.16734194374999,"velocity":0.7874015748031497,"duration":0.4965272812499997},{"name":"C#7","midi":97,"time":19.666646999999987,"velocity":0.7874015748031497,"duration":0.001388887499999214},{"name":"C#7","midi":97,"time":19.833313499999985,"velocity":0.7874015748031497,"duration":0.000694443749999607},{"name":"D7","midi":98,"time":19.999979999999983,"velocity":0.7874015748031497,"duration":0.3298607812500016},{"name":"C7","midi":96,"time":20.333312999999986,"velocity":0.7874015748031497,"duration":0.33055522500000123},{"name":"C7","midi":96,"time":20.666645999999986,"velocity":0.7874015748031497,"duration":0.33055522500000123},{"name":"C7","midi":96,"time":20.999978999999986,"velocity":0.7874015748031497,"duration":0.000694443749999607},{"name":"C#7","midi":97,"time":21.167339943749987,"velocity":0.7874015748031497,"duration":0.3298607812500016},{"name":"C#7","midi":97,"time":21.499978499999987,"velocity":0.7874015748031497,"duration":0.3298607812500016},{"name":"D7","midi":98,"time":21.83331149999999,"velocity":0.7874015748031497,"duration":0.000694443749999607},{"name":"C7","midi":96,"time":21.999977999999988,"velocity":0.7874015748031497,"duration":0.3298607812500016},{"name":"C#7","midi":97,"time":22.33331099999999,"velocity":0.7874015748031497,"duration":0.4965272812499997},{"name":"C#7","midi":97,"time":22.833310499999993,"velocity":0.7874015748031497,"duration":0.33055522500000123},{"name":"D7","midi":98,"time":23.167337943749995,"velocity":0.7874015748031497,"duration":0.000694443749999607},{"name":"C7","midi":96,"time":23.333309999999994,"velocity":0.7874015748031497,"duration":0.33055522500000123},{"name":"C#7","midi":97,"time":23.666642999999993,"velocity":0.7874015748031497,"duration":0.33055522500000123},{"name":"C#7","midi":97,"time":23.999975999999993,"velocity":0.7874015748031497,"duration":0.3298607812500016},{"name":"C#7","midi":97,"time":24.333308999999996,"velocity":0.7874015748031497,"duration":0.33055522500000123},{"name":"D7","midi":97,"time":24.666641999999996,"velocity":0.7874015748031497,"duration":0.33055522500000123},{"name":"C7","midi":96,"time":24.999974999999996,"velocity":0.7874015748031497,"duration":0.3298607812500016},{"name":"C7","midi":96,"time":25.333308,"velocity":0.7874015748031497,"duration":0.9965267812500009},{"name":"C7","midi":96,"time":26.333307,"velocity":0.7874015748031497,"duration":0.000694443749999607},{"name":"C#7","midi":97,"time":26.4999735,"velocity":0.7874015748031497,"duration":0.000694443749999607},{"name":"C#7","midi":97,"time":26.666639999999997,"velocity":0.7874015748031497,"duration":0.33055522500000123},{"name":"D7","midi":98,"time":26.999972999999997,"velocity":0.7874015748031497,"duration":0.3298607812500016},{"name":"C7","midi":96,"time":27.333306,"velocity":0.7874015748031497,"duration":0.4965272812499997},{"name":"C#7","midi":97,"time":27.8333055,"velocity":0.7874015748031497,"duration":0.000694443749999607},{"name":"C#7","midi":97,"time":27.999972,"velocity":0.7874015748031497,"duration":0.3298607812500016},{"name":"D7","midi":98,"time":28.333305000000003,"velocity":0.7874015748031497,"duration":0.33055522500000123},{"name":"C7","midi":96,"time":28.666638000000003,"velocity":0.7874015748031497,"duration":0.4972217249999993},{"name":"C#7","midi":97,"time":29.167331943750003,"velocity":0.7874015748031497,"duration":0.000694443749999607},{"name":"C#7","midi":97,"time":29.333304000000002,"velocity":0.7874015748031497,"duration":0.000694443749999607},{"name":"C#7","midi":97,"time":29.4999705,"velocity":0.7874015748031497,"duration":0.3298607812500016},{"name":"C#7","midi":97,"time":29.833303500000003,"velocity":0.7874015748031497,"duration":0.33055522500000123},{"name":"C7","midi":96,"time":30.167330943750006,"velocity":0.7874015748031497,"duration":0.3298607812500016},{"name":"C7","midi":96,"time":30.499969500000006,"velocity":0.7874015748031497,"duration":1.1638877249999986},{"name":"D7","midi":98,"time":31.666635000000003,"velocity":0.7874015748031497,"duration":0.001388887499999214},{"name":"C7","midi":96,"time":31.8333015,"velocity":0.7874015748031497,"duration":0.000694443749999607},{"name":"C#7","midi":97,"time":31.999968,"velocity":0.7874015748031497,"duration":0.4972217249999993},{"name":"D7","midi":98,"time":32.4999675,"velocity":0.7874015748031497,"duration":0.49722172500000283},{"name":"D7","midi":98,"time":32.999967,"velocity":0.7874015748031497,"duration":0.32986078124999807},{"name":"C#7","midi":97,"time":33.333299999999994,"velocity":0.7874015748031497,"duration":0.000694443749999607},{"name":"D7","midi":98,"time":33.49996649999999,"velocity":0.7874015748031497,"duration":0.32986078124999807},{"name":"D7","midi":98,"time":33.83329949999999,"velocity":0.7874015748031497,"duration":0.3305552249999977},{"name":"C7","midi":96,"time":34.167326943749984,"velocity":0.7874015748031497,"duration":0.000694443749999607},{"name":"D7","midi":98,"time":34.33329899999998,"velocity":0.7874015748031497,"duration":0.000694443749999607},{"name":"C#7","midi":97,"time":34.49996549999998,"velocity":0.7874015748031497,"duration":0.000694443749999607},{"name":"D7","midi":98,"time":34.66663199999998,"velocity":0.7874015748031497,"duration":0.3305552249999977},{"name":"C7","midi":96,"time":34.999964999999975,"velocity":0.7874015748031497,"duration":0.000694443749999607},{"name":"C7","midi":96,"time":35.16732594374997,"velocity":0.7874015748031497,"duration":0.4965272812500032},{"name":"C7","midi":96,"time":35.666630999999974,"velocity":0.7874015748031497,"duration":0.3305552249999977},{"name":"C7","midi":96,"time":35.99996399999997,"velocity":0.7874015748031497,"duration":0.32986078124999807},{"name":"C7","midi":96,"time":36.333296999999966,"velocity":0.7874015748031497,"duration":0.3305552249999977},{"name":"C7","midi":96,"time":36.66662999999996,"velocity":0.7874015748031497,"duration":0.3305552249999977},{"name":"D7","midi":98,"time":36.99996299999996,"velocity":0.7874015748031497,"duration":0.000694443749999607},{"name":"C7","midi":96,"time":37.167323943749956,"velocity":0.7874015748031497,"duration":0.000694443749999607},{"name":"C#7","midi":97,"time":37.333295999999955,"velocity":0.7874015748031497,"duration":0.4965272812500032},{"name":"D7","midi":98,"time":37.833295499999956,"velocity":0.7874015748031497,"duration":0.4965272812500032},{"name":"D7","midi":98,"time":38.33329499999996,"velocity":0.7874015748031497,"duration":0.3305552249999977},{"name":"D7","midi":98,"time":38.66662799999995,"velocity":0.7874015748031497,"duration":0.001388887499999214},{"name":"D7","midi":98,"time":38.83329449999995,"velocity":0.7874015748031497,"duration":0.3305552249999977},{"name":"D7","midi":98,"time":39.16732194374995,"velocity":0.7874015748031497,"duration":0.32986078124999807},{"name":"C7","midi":96,"time":39.49996049999994,"velocity":0.7874015748031497,"duration":0.000694443749999607},{"name":"C7","midi":96,"time":39.66662699999994,"velocity":0.7874015748031497,"duration":0.001388887499999214},{"name":"D7","midi":98,"time":39.83329349999994,"velocity":0.7874015748031497,"duration":0.000694443749999607},{"name":"D7","midi":98,"time":39.99995999999994,"velocity":0.7874015748031497,"duration":0.32986078124999807},{"name":"C#7","midi":97,"time":40.333292999999934,"velocity":0.7874015748031497,"duration":0.000694443749999607},{"name":"C7","midi":96,"time":40.49995949999993,"velocity":0.7874015748031497,"duration":0.49722172500000283},{"name":"C7","midi":96,"time":40.99995899999993,"velocity":0.7874015748031497,"duration":0.32986078124999807},{"name":"C7","midi":96,"time":41.33329199999993,"velocity":0.7874015748031497,"duration":0.3305552249999977},{"name":"C7","midi":96,"time":41.666624999999925,"velocity":0.7874015748031497,"duration":0.3305552249999977},{"name":"C7","midi":96,"time":41.99995799999992,"velocity":0.7874015748031497,"duration":0.6638882250000009},{"name":"D7","midi":98,"time":42.66662399999992,"velocity":0.7874015748031497,"duration":0.3305552249999977},{"name":"D7","midi":98,"time":42.99995699999992,"velocity":0.7874015748031497,"duration":0.32986078124999807},{"name":"C7","midi":96,"time":43.33328999999991,"velocity":0.7874015748031497,"duration":0.3305552249999977},{"name":"C#7","midi":97,"time":43.66662299999991,"velocity":0.7874015748031497,"duration":0.3305552249999977},{"name":"D7","midi":98,"time":43.999955999999905,"velocity":0.7874015748031497,"duration":0.001388887499999214},{"name":"C#7","midi":97,"time":44.1673169437499,"velocity":0.7874015748031497,"duration":0.000694443749999607},{"name":"C7","midi":96,"time":44.3332889999999,"velocity":0.7874015748031497,"duration":0.3305552249999977},{"name":"C7","midi":96,"time":44.6666219999999,"velocity":0.7874015748031497,"duration":0.3305552249999977},{"name":"D7","midi":98,"time":44.99995499999989,"velocity":0.7874015748031497,"duration":0.6638882250000009},{"name":"C#7","midi":97,"time":45.66662099999989,"velocity":0.7874015748031497,"duration":0.997221224999997},{"name":"C7","midi":96,"time":46.66661999999989,"velocity":0.7874015748031497,"duration":1.1631932812500025},{"name":"C#7","midi":97,"time":47.83328549999989,"velocity":0.7874015748031497,"duration":0.000694443749999607},{"name":"D7","midi":98,"time":47.99995199999989,"velocity":0.7874015748031497,"duration":0.32986078124999807},{"name":"D7","midi":98,"time":48.33328499999988,"velocity":0.7874015748031497,"duration":0.3305552249999977},{"name":"C7","midi":96,"time":48.66661799999988,"velocity":0.7874015748031497,"duration":0.3305552249999977},{"name":"C#7","midi":97,"time":48.999950999999875,"velocity":0.7874015748031497,"duration":0.32986078124999807},{"name":"C#7","midi":97,"time":49.33328399999987,"velocity":0.7874015748031497,"duration":0.000694443749999607},{"name":"C7","midi":96,"time":49.49995049999987,"velocity":0.7874015748031497,"duration":0.49722172500000283},{"name":"C#7","midi":97,"time":49.99994999999987,"velocity":0.7874015748031497,"duration":0.6638882250000009},{"name":"D7","midi":98,"time":50.66661599999987,"velocity":0.7874015748031497,"duration":1.3305542250000002},{"name":"C7","midi":96,"time":51.99994799999987,"velocity":0.7874015748031497,"duration":1.3298597812500006},{"name":"D7","midi":98,"time":53.33327999999987,"velocity":0.7874015748031497,"duration":0.3305552249999977},{"name":"D7","midi":98,"time":53.66661299999986,"velocity":0.7874015748031497,"duration":0.3305552249999977},{"name":"C7","midi":96,"time":53.99994599999986,"velocity":0.7874015748031497,"duration":0.32986078124999807},{"name":"C#7","midi":97,"time":54.333278999999855,"velocity":0.7874015748031497,"duration":0.3305552249999977},{"name":"C#7","midi":97,"time":54.66661199999985,"velocity":0.7874015748031497,"duration":0.001388887499999214},{"name":"D7","midi":98,"time":54.83327849999985,"velocity":0.7874015748031497,"duration":0.000694443749999607},{"name":"C7","midi":96,"time":54.99994499999985,"velocity":0.7874015748031497,"duration":0.32986078124999807},{"name":"C7","midi":96,"time":55.333277999999844,"velocity":0.7874015748031497,"duration":0.3305552249999977},{"name":"D7","midi":98,"time":55.66661099999984,"velocity":0.7874015748031497,"duration":0.6631937812500013},{"name":"C#7","midi":97,"time":56.33327699999984,"velocity":0.7874015748031497,"duration":0.9965267812499974},{"name":"C7","midi":96,"time":57.333275999999834,"velocity":0.7874015748031497,"duration":1.1638877250000021},{"name":"C#7","midi":97,"time":58.499941499999835,"velocity":0.7874015748031497,"duration":0.001388887499999214},{"name":"D7","midi":98,"time":58.66660799999983,"velocity":0.7874015748031497,"duration":0.3305552249999977},{"name":"D7","midi":98,"time":58.99994099999983,"velocity":0.7874015748031497,"duration":0.32986078124999807},{"name":"C7","midi":96,"time":59.333273999999825,"velocity":0.7874015748031497,"duration":0.3305552249999977},{"name":"C#7","midi":97,"time":59.66660699999982,"velocity":0.7874015748031497,"duration":0.3305552249999977},{"name":"D7","midi":98,"time":59.99993999999982,"velocity":0.7874015748031497,"duration":0.001388887499999214},{"name":"C7","midi":96,"time":60.167300943749815,"velocity":0.7874015748031497,"duration":0.4965272812500032},{"name":"C#7","midi":97,"time":60.66660599999982,"velocity":0.7874015748031497,"duration":0.001388887499999214},{"name":"D7","midi":98,"time":60.833272499999815,"velocity":0.7874015748031497,"duration":0.8305547249999989},{"name":"C#7","midi":97,"time":61.66660499999981,"velocity":0.7874015748031497,"duration":0.997221224999997},{"name":"C7","midi":96,"time":62.66660399999981,"velocity":0.7874015748031497,"duration":1.1631932812500025},{"name":"C#7","midi":97,"time":63.83326949999981,"velocity":0.7874015748031497,"duration":0.000694443749999607},{"name":"D7","midi":98,"time":63.999935999999806,"velocity":0.7874015748031497,"duration":0.3298607812500052},{"name":"C7","midi":96,"time":64.33326899999982,"velocity":0.7874015748031497,"duration":0.0006944437500067124},{"name":"D7","midi":98,"time":64.49993549999982,"velocity":0.7874015748031497,"duration":0.49722172500000283},{"name":"D7","midi":98,"time":64.99993499999982,"velocity":0.7874015748031497,"duration":0.001388887499999214},{"name":"C7","midi":96,"time":65.16729594374982,"velocity":0.7874015748031497,"duration":0.0006944437500067124},{"name":"D7","midi":98,"time":65.33326799999983,"velocity":0.7874015748031497,"duration":0.0006944437500067124},{"name":"C#7","midi":97,"time":65.49993449999984,"velocity":0.7874015748031497,"duration":0.001388887499999214},{"name":"D7","midi":98,"time":65.66660099999984,"velocity":0.7874015748031497,"duration":0.3305552249999977},{"name":"D7","midi":98,"time":65.99993399999984,"velocity":0.7874015748031497,"duration":0.49722172500000283},{"name":"C#7","midi":97,"time":66.49993349999984,"velocity":0.7874015748031497,"duration":0.001388887499999214},{"name":"C7","midi":96,"time":66.66659999999985,"velocity":0.7874015748031497,"duration":0.3305552249999977},{"name":"D7","midi":98,"time":66.99993299999984,"velocity":0.7874015748031497,"duration":0.001388887499999214},{"name":"C7","midi":96,"time":67.16729394374984,"velocity":0.7874015748031497,"duration":0.4965272812499961},{"name":"C#7","midi":97,"time":67.66659899999983,"velocity":0.7874015748031497,"duration":0.001388887499999214},{"name":"C7","midi":96,"time":67.83326549999984,"velocity":0.7874015748031497,"duration":0.0006944437500067124},{"name":"D7","midi":98,"time":67.99993199999984,"velocity":0.7874015748031497,"duration":0.3298607812500052},{"name":"C7","midi":96,"time":68.33326499999986,"velocity":0.7874015748031497,"duration":0.3305552249999977},{"name":"C7","midi":96,"time":68.66659799999985,"velocity":0.7874015748031497,"duration":0.3305552249999977},{"name":"D7","midi":98,"time":68.99993099999985,"velocity":0.7874015748031497,"duration":0.001388887499999214},{"name":"C7","midi":96,"time":69.16729194374985,"velocity":0.7874015748031497,"duration":0.0006944437500067124},{"name":"D7","midi":98,"time":69.33326399999986,"velocity":0.7874015748031497,"duration":0.0006944437500067124},{"name":"C#7","midi":97,"time":69.49993049999986,"velocity":0.7874015748031497,"duration":0.3298607812500052},{"name":"D7","midi":98,"time":69.83326349999987,"velocity":0.7874015748031497,"duration":0.4965272812499961},{"name":"C#7","midi":97,"time":70.33326299999987,"velocity":0.7874015748031497,"duration":0.0006944437500067124},{"name":"C7","midi":96,"time":70.49992949999988,"velocity":0.7874015748031497,"duration":0.001388887499999214},{"name":"D7","midi":98,"time":70.66659599999988,"velocity":0.7874015748031497,"duration":0.3305552249999977},{"name":"D7","midi":98,"time":70.99992899999988,"velocity":0.7874015748031497,"duration":0.3298607812500052},{"name":"D7","midi":98,"time":71.33326199999989,"velocity":0.7874015748031497,"duration":0.4965272812499961},{"name":"C#7","midi":97,"time":71.83326149999989,"velocity":0.7874015748031497,"duration":0.0006944437500067124},{"name":"C7","midi":96,"time":71.9999279999999,"velocity":0.7874015748031497,"duration":0.3298607812500052},{"name":"C#7","midi":97,"time":72.33326099999991,"velocity":0.7874015748031497,"duration":0.0006944437500067124},{"name":"C7","midi":96,"time":72.49992749999991,"velocity":0.7874015748031497,"duration":0.49722172500000283},{"name":"C7","midi":96,"time":72.99992699999991,"velocity":0.7874015748031497,"duration":0.001388887499999214},{"name":"C#7","midi":97,"time":73.16728794374991,"velocity":0.7874015748031497,"duration":0.0006944437500067124},{"name":"D7","midi":98,"time":73.33325999999992,"velocity":0.7874015748031497,"duration":0.3305552249999977},{"name":"C7","midi":96,"time":73.66659299999992,"velocity":0.7874015748031497,"duration":0.3305552249999977},{"name":"C7","midi":96,"time":73.99992599999992,"velocity":0.7874015748031497,"duration":0.3298607812500052},{"name":"D7","midi":98,"time":74.33325899999993,"velocity":0.7874015748031497,"duration":0.0006944437500067124},{"name":"C#7","midi":97,"time":74.49992549999993,"velocity":0.7874015748031497,"duration":0.3298607812500052},{"name":"C#7","midi":97,"time":74.83325849999994,"velocity":0.7874015748031497,"duration":0.3305552249999977},{"name":"D7","midi":98,"time":75.16728594374995,"velocity":0.7874015748031497,"duration":0.0006944437500067124},{"name":"C7","midi":96,"time":75.33325799999996,"velocity":0.7874015748031497,"duration":0.3305552249999977},{"name":"C#7","midi":97,"time":75.66659099999995,"velocity":0.7874015748031497,"duration":0.49722172500000283},{"name":"C#7","midi":97,"time":76.16728494374996,"velocity":0.7874015748031497,"duration":0.3298607812500052},{"name":"D7","midi":98,"time":76.49992349999997,"velocity":0.7874015748031497,"duration":0.001388887499999214},{"name":"C7","midi":96,"time":76.66658999999997,"velocity":0.7874015748031497,"duration":0.3305552249999977},{"name":"C#7","midi":97,"time":76.99992299999997,"velocity":0.7874015748031497,"duration":0.3298607812500052},{"name":"C#7","midi":97,"time":77.33325599999998,"velocity":0.7874015748031497,"duration":0.3305552249999977},{"name":"C#7","midi":97,"time":77.66658899999997,"velocity":0.7874015748031497,"duration":0.3305552249999977},{"name":"C#7","midi":97,"time":77.99992199999997,"velocity":0.7874015748031497,"duration":0.3298607812500052},{"name":"C7","midi":96,"time":78.33325499999998,"velocity":0.7874015748031497,"duration":0.3305552249999977},{"name":"C7","midi":96,"time":78.66658799999998,"velocity":0.7874015748031497,"duration":0.9972212250000041},{"name":"C7","midi":96,"time":79.66658699999998,"velocity":0.7874015748031497,"duration":0.001388887499999214},{"name":"C#7","midi":97,"time":79.83325349999998,"velocity":0.7874015748031497,"duration":0.0006944437500067124},{"name":"C#7","midi":97,"time":79.99991999999999,"velocity":0.7874015748031497,"duration":0.3298607812500052},{"name":"D7","midi":98,"time":80.333253,"velocity":0.7874015748031497,"duration":0.3305552249999977},{"name":"C7","midi":96,"time":80.666586,"velocity":0.7874015748031497,"duration":0.49722172500000283},{"name":"D7","midi":98,"time":81.16727994375,"velocity":0.7874015748031497,"duration":0.0006944437500067124},{"name":"C#7","midi":97,"time":81.33325200000002,"velocity":0.7874015748031497,"duration":0.3305552249999977},{"name":"D7","midi":98,"time":81.66658500000001,"velocity":0.7874015748031497,"duration":0.3305552249999977},{"name":"C7","midi":96,"time":81.99991800000001,"velocity":0.7874015748031497,"duration":0.49722172500000283},{"name":"C#7","midi":97,"time":82.49991750000001,"velocity":0.7874015748031497,"duration":0.001388887499999214},{"name":"D7","midi":98,"time":82.66658400000001,"velocity":0.7874015748031497,"duration":0.001388887499999214},{"name":"C#7","midi":97,"time":82.83325050000002,"velocity":0.7874015748031497,"duration":0.3305552249999977},{"name":"C#7","midi":97,"time":83.16727794375002,"velocity":0.7874015748031497,"duration":0.3298607812500052},{"name":"C7","midi":96,"time":83.49991650000003,"velocity":0.7874015748031497,"duration":0.3298607812500052},{"name":"C7","midi":96,"time":83.83324950000004,"velocity":0.7874015748031497,"duration":1.163887724999995},{"name":"D7","midi":98,"time":84.99991500000003,"velocity":0.7874015748031497,"duration":0.001388887499999214},{"name":"C7","midi":96,"time":85.16727594375003,"velocity":0.7874015748031497,"duration":0.0006944437500067124},{"name":"C#7","midi":97,"time":85.33324800000004,"velocity":0.7874015748031497,"duration":0.4965272812499961},{"name":"D7","midi":98,"time":85.83324750000004,"velocity":0.7874015748031497,"duration":0.4965272812499961},{"name":"D7","midi":98,"time":86.33324700000004,"velocity":0.7874015748031497,"duration":0.3305552249999977},{"name":"C#7","midi":97,"time":86.66658000000004,"velocity":0.7874015748031497,"duration":0.001388887499999214},{"name":"D7","midi":98,"time":86.83324650000004,"velocity":0.7874015748031497,"duration":0.3305552249999977},{"name":"D7","midi":98,"time":87.16727394375005,"velocity":0.7874015748031497,"duration":0.3298607812500052},{"name":"C7","midi":96,"time":87.49991250000005,"velocity":0.7874015748031497,"duration":0.001388887499999214},{"name":"C#7","midi":97,"time":87.66657900000006,"velocity":0.7874015748031497,"duration":0.001388887499999214},{"name":"D7","midi":98,"time":87.83324550000006,"velocity":0.7874015748031497,"duration":0.0006944437500067124},{"name":"D7","midi":98,"time":87.99991200000007,"velocity":0.7874015748031497,"duration":0.3298607812500052},{"name":"C7","midi":96,"time":88.33324500000008,"velocity":0.7874015748031497,"duration":0.0006944437500067124},{"name":"C7","midi":96,"time":88.49991150000008,"velocity":0.7874015748031497,"duration":0.49722172500000283},{"name":"C7","midi":96,"time":88.99991100000008,"velocity":0.7874015748031497,"duration":0.3298607812500052},{"name":"C7","midi":96,"time":89.3332440000001,"velocity":0.7874015748031497,"duration":0.3305552249999977},{"name":"C7","midi":96,"time":89.66657700000009,"velocity":0.7874015748031497,"duration":0.3305552249999977},{"name":"C7","midi":96,"time":89.99991000000009,"velocity":0.7874015748031497,"duration":0.3298607812500052},{"name":"D7","midi":98,"time":90.3332430000001,"velocity":0.7874015748031497,"duration":0.0006944437500067124},{"name":"C7","midi":96,"time":90.4999095000001,"velocity":0.7874015748031497,"duration":0.001388887499999214},{"name":"C#7","midi":97,"time":90.6665760000001,"velocity":0.7874015748031497,"duration":0.49722172500000283},{"name":"D7","midi":98,"time":91.16726994375011,"velocity":0.7874015748031497,"duration":0.4965272812499961},{"name":"D7","midi":98,"time":91.66657500000011,"velocity":0.7874015748031497,"duration":0.3305552249999977},{"name":"C#7","midi":97,"time":91.9999080000001,"velocity":0.7874015748031497,"duration":0.001388887499999214},{"name":"D7","midi":98,"time":92.1672689437501,"velocity":0.7874015748031497,"duration":0.3298607812500052},{"name":"D7","midi":98,"time":92.4999075000001,"velocity":0.7874015748031497,"duration":0.3298607812500052},{"name":"C7","midi":96,"time":92.83324050000012,"velocity":0.7874015748031497,"duration":0.0006944437500067124},{"name":"D7","midi":98,"time":92.99990700000012,"velocity":0.7874015748031497,"duration":0.001388887499999214},{"name":"C#7","midi":97,"time":93.16726794375012,"velocity":0.7874015748031497,"duration":0.0006944437500067124},{"name":"D7","midi":98,"time":93.33324000000013,"velocity":0.7874015748031497,"duration":0.3305552249999977},{"name":"C#7","midi":97,"time":93.66657300000013,"velocity":0.7874015748031497,"duration":0.001388887499999214},{"name":"C7","midi":96,"time":93.83323950000013,"velocity":0.7874015748031497,"duration":0.4965272812499961},{"name":"C7","midi":96,"time":94.33323900000013,"velocity":0.7874015748031497,"duration":0.3305552249999977},{"name":"C7","midi":96,"time":94.66657200000013,"velocity":0.7874015748031497,"duration":0.3305552249999977},{"name":"C7","midi":96,"time":94.99990500000013,"velocity":0.7874015748031497,"duration":0.3298607812500052},{"name":"C7","midi":96,"time":95.33323800000014,"velocity":0.7874015748031497,"duration":0.6638882249999938},{"name":"D7","midi":98,"time":95.99990400000013,"velocity":0.7874015748031497,"duration":0.3298607812500052},{"name":"D7","midi":98,"time":96.33323700000014,"velocity":0.7874015748031497,"duration":0.3305552249999977},{"name":"C7","midi":96,"time":96.66657000000014,"velocity":0.7874015748031497,"duration":0.3305552249999977},{"name":"C#7","midi":97,"time":96.99990300000013,"velocity":0.7874015748031497,"duration":0.3298607812500052},{"name":"C#7","midi":97,"time":97.33323600000014,"velocity":0.7874015748031497,"duration":0.0006944437500067124},{"name":"D7","midi":98,"time":97.49990250000015,"velocity":0.7874015748031497,"duration":0.001388887499999214},{"name":"C7","midi":96,"time":97.66656900000015,"velocity":0.7874015748031497,"duration":0.3305552249999977},{"name":"C7","midi":96,"time":97.99990200000015,"velocity":0.7874015748031497,"duration":0.3298607812500052},{"name":"D7","midi":98,"time":98.33323500000016,"velocity":0.7874015748031497,"duration":0.6638882249999938},{"name":"C#7","midi":97,"time":98.99990100000015,"velocity":0.7874015748031497,"duration":0.9972212250000041},{"name":"C7","midi":96,"time":99.99990000000015,"velocity":0.7874015748031497,"duration":1.163887724999995},{"name":"C#7","midi":97,"time":101.16725994375015,"velocity":0.7874015748031497,"duration":0.0006944437500067124},{"name":"D7","midi":98,"time":101.33323200000017,"velocity":0.7874015748031497,"duration":0.3305552249999977},{"name":"D7","midi":98,"time":101.66656500000016,"velocity":0.7874015748031497,"duration":0.3305552249999977},{"name":"C7","midi":96,"time":101.99989800000016,"velocity":0.7874015748031497,"duration":0.3298607812500052},{"name":"C#7","midi":97,"time":102.33323100000017,"velocity":0.7874015748031497,"duration":0.3305552249999977},{"name":"D7","midi":98,"time":102.66656400000016,"velocity":0.7874015748031497,"duration":0.001388887499999214},{"name":"C7","midi":96,"time":102.83323050000017,"velocity":0.7874015748031497,"duration":0.4965272812499961},{"name":"C#7","midi":97,"time":103.33323000000017,"velocity":0.7874015748031497,"duration":0.6638882249999938},{"name":"D7","midi":98,"time":103.99989600000016,"velocity":0.7874015748031497,"duration":1.3298597812499935},{"name":"C7","midi":96,"time":105.33322800000016,"velocity":0.7874015748031497,"duration":1.3305542250000002},{"name":"D7","midi":98,"time":106.66656000000016,"velocity":0.7874015748031497,"duration":0.3305552249999977},{"name":"D7","midi":98,"time":106.99989300000016,"velocity":0.7874015748031497,"duration":0.3298607812500052},{"name":"C7","midi":96,"time":107.33322600000017,"velocity":0.7874015748031497,"duration":0.3305552249999977},{"name":"C#7","midi":97,"time":107.66655900000016,"velocity":0.7874015748031497,"duration":0.3305552249999977},{"name":"C#7","midi":97,"time":107.99989200000016,"velocity":0.7874015748031497,"duration":0.001388887499999214},{"name":"D7","midi":98,"time":108.16725294375016,"velocity":0.7874015748031497,"duration":0.0006944437500067124},{"name":"C7","midi":96,"time":108.33322500000017,"velocity":0.7874015748031497,"duration":0.3305552249999977},{"name":"C7","midi":96,"time":108.66655800000017,"velocity":0.7874015748031497,"duration":0.3305552249999977},{"name":"D7","midi":98,"time":108.99989100000016,"velocity":0.7874015748031497,"duration":0.6638882249999938},{"name":"C#7","midi":97,"time":109.66655700000015,"velocity":0.7874015748031497,"duration":0.9972212250000041},{"name":"C7","midi":96,"time":110.66655600000016,"velocity":0.7874015748031497,"duration":1.1631932812500025},{"name":"D7","midi":98,"time":111.83322150000016,"velocity":0.7874015748031497,"duration":0.0006944437500067124},{"name":"C#7","midi":97,"time":111.99988800000017,"velocity":0.7874015748031497,"duration":0.3298607812500052},{"name":"D7","midi":98,"time":112.33322100000018,"velocity":0.7874015748031497,"duration":0.3305552249999977},{"name":"C7","midi":96,"time":112.66655400000018,"velocity":0.7874015748031497,"duration":0.3305552249999977},{"name":"C#7","midi":97,"time":112.99988700000017,"velocity":0.7874015748031497,"duration":0.3298607812500052},{"name":"C7","midi":96,"time":113.33322000000018,"velocity":0.7874015748031497,"duration":0.0006944437500067124},{"name":"D7","midi":98,"time":113.49988650000019,"velocity":0.7874015748031497,"duration":0.49722172500000283},{"name":"C#7","midi":97,"time":113.99988600000019,"velocity":0.7874015748031497,"duration":0.001388887499999214},{"name":"D7","midi":98,"time":114.16724694375019,"velocity":0.7874015748031497,"duration":0.8298602812500064},{"name":"C#7","midi":97,"time":114.99988500000019,"velocity":0.7874015748031497,"duration":0.9972212250000041},{"name":"C7","midi":96,"time":115.9998840000002,"velocity":0.7874015748031497,"duration":1.4972207250000054},{"name":"D7","midi":98,"time":117.4998825000002,"velocity":0.7874015748031497,"duration":0.001388887499999214},{"name":"C7","midi":96,"time":117.6665490000002,"velocity":0.7874015748031497,"duration":0.3305552249999977},{"name":"C#7","midi":97,"time":117.9998820000002,"velocity":0.7874015748031497,"duration":0.3298607812500052},{"name":"D7","midi":98,"time":118.33321500000021,"velocity":0.7874015748031497,"duration":0.4965272812499961},{"name":"C7","midi":96,"time":118.83321450000021,"velocity":0.7874015748031497,"duration":0.0006944437500067124},{"name":"C#7","midi":97,"time":118.99988100000022,"velocity":0.7874015748031497,"duration":0.3298607812500052},{"name":"D7","midi":98,"time":119.33321400000023,"velocity":0.7874015748031497,"duration":0.6638882249999938},{"name":"C7","midi":96,"time":119.99988000000022,"velocity":0.7874015748031497,"duration":0.001388887499999214},{"name":"C#7","midi":97,"time":120.16724094375022,"velocity":0.7874015748031497,"duration":0.0006944437500067124},{"name":"C7","midi":96,"time":120.33321300000023,"velocity":0.7874015748031497,"duration":0.0006944437500067124},{"name":"D7","midi":98,"time":120.49987950000023,"velocity":0.7874015748031497,"duration":0.001388887499999214},{"name":"C#7","midi":97,"time":120.66654600000024,"velocity":0.7874015748031497,"duration":0.001388887499999214},{"name":"C7","midi":96,"time":120.83321250000024,"velocity":0.7874015748031497,"duration":0.0006944437500067124},{"name":"C#7","midi":97,"time":120.99987900000025,"velocity":0.7874015748031497,"duration":0.001388887499999214},{"name":"D7","midi":98,"time":121.16723994375025,"velocity":0.7874015748031497,"duration":0.0006944437500067124},{"name":"C#7","midi":97,"time":121.33321200000026,"velocity":0.7874015748031497,"duration":0.0006944437500067124},{"name":"C7","midi":96,"time":121.49987850000026,"velocity":0.7874015748031497,"duration":0.001388887499999214},{"name":"C#7","midi":97,"time":121.66654500000027,"velocity":0.7874015748031497,"duration":0.001388887499999214},{"name":"D7","midi":98,"time":121.83321150000027,"velocity":0.7874015748031497,"duration":0.0006944437500067124},{"name":"C#7","midi":97,"time":121.99987800000028,"velocity":0.7874015748031497,"duration":0.001388887499999214},{"name":"C7","midi":96,"time":122.16723894375028,"velocity":0.7874015748031497,"duration":0.0006944437500067124},{"name":"C#7","midi":97,"time":122.33321100000029,"velocity":0.7874015748031497,"duration":0.3305552249999977},{"name":"D7","midi":98,"time":122.66654400000029,"velocity":0.7874015748031497,"duration":0.3305552249999977},{"name":"C#7","midi":97,"time":122.99987700000028,"velocity":0.7874015748031497,"duration":0.3298607812500052},{"name":"C7","midi":96,"time":123.33321000000029,"velocity":0.7874015748031497,"duration":0.3305552249999977},{"name":"C#7","midi":97,"time":123.66654300000029,"velocity":0.7874015748031497,"duration":0.3305552249999977},{"name":"D7","midi":98,"time":123.99987600000028,"velocity":0.7874015748031497,"duration":0.3298607812500052},{"name":"C7","midi":96,"time":124.3332090000003,"velocity":0.7874015748031497,"duration":0.3305552249999977},{"name":"C#7","midi":97,"time":124.66654200000029,"velocity":0.7874015748031497,"duration":0.6631937812500013},{"name":"C7","midi":96,"time":125.3332080000003,"velocity":0.7874015748031497,"duration":0.0006944437500067124},{"name":"D7","midi":98,"time":125.4998745000003,"velocity":0.7874015748031497,"duration":0.001388887499999214},{"name":"C#7","midi":97,"time":125.66654100000031,"velocity":0.7874015748031497,"duration":0.001388887499999214},{"name":"C7","midi":96,"time":125.83320750000031,"velocity":0.7874015748031497,"duration":0.0006944437500067124},{"name":"C#7","midi":97,"time":125.99987400000032,"velocity":0.7874015748031497,"duration":0.001388887499999214},{"name":"D7","midi":98,"time":126.16723494375032,"velocity":0.7874015748031497,"duration":0.0006944437500067124},{"name":"C#7","midi":97,"time":126.33320700000033,"velocity":0.7874015748031497,"duration":0.0006944437500067124},{"name":"C7","midi":96,"time":126.49987350000033,"velocity":0.7874015748031497,"duration":0.001388887499999214},{"name":"C#7","midi":97,"time":126.66654000000034,"velocity":0.7874015748031497,"duration":0.001388887499999214},{"name":"D7","midi":98,"time":126.83320650000034,"velocity":0.7874015748031497,"duration":0.0006944437500067124},{"name":"C#7","midi":97,"time":126.99987300000035,"velocity":0.7874015748031497,"duration":0.3298607812500052},{"name":"C7","midi":96,"time":127.33320600000036,"velocity":0.7874015748031497,"duration":0.3305552249999977},{"name":"C#7","midi":97,"time":127.66653900000036,"velocity":0.7874015748031497,"duration":0.4972217249999886},{"name":"D7","midi":98,"time":128.16723294375035,"velocity":0.7874015748031497,"duration":0.3298607812500052},{"name":"C#7","midi":97,"time":128.49987150000035,"velocity":0.7874015748031497,"duration":0.0013888875000134249},{"name":"C7","midi":96,"time":128.66653800000037,"velocity":0.7874015748031497,"duration":0.0013888875000134249},{"name":"C#7","midi":97,"time":128.8332045000004,"velocity":0.7874015748031497,"duration":0.0006944437500067124},{"name":"D7","midi":98,"time":128.9998710000004,"velocity":0.7874015748031497,"duration":0.0013888875000134249},{"name":"C#7","midi":97,"time":129.16723194375044,"velocity":0.7874015748031497,"duration":0.0006944437500067124},{"name":"C7","midi":96,"time":129.33320400000045,"velocity":0.7874015748031497,"duration":0.3305552250000119},{"name":"C#7","midi":97,"time":129.66653700000046,"velocity":0.7874015748031497,"duration":0.3305552250000119},{"name":"D7","midi":98,"time":129.99987000000047,"velocity":0.7874015748031497,"duration":0.0013888875000134249},{"name":"C#7","midi":97,"time":130.1672309437505,"velocity":0.7874015748031497,"duration":0.3298607812500052},{"name":"C7","midi":96,"time":130.4998695000005,"velocity":0.7874015748031497,"duration":0.0013888875000134249},{"name":"C#7","midi":97,"time":130.66653600000052,"velocity":0.7874015748031497,"duration":0.0013888875000134249},{"name":"D7","midi":98,"time":130.83320250000054,"velocity":0.7874015748031497,"duration":0.3305552250000119},{"name":"C#7","midi":97,"time":131.16722994375056,"velocity":0.7874015748031497,"duration":0.0006944437500067124},{"name":"C7","midi":96,"time":131.33320200000057,"velocity":0.7874015748031497,"duration":0.0006944437500067124},{"name":"C#7","midi":97,"time":131.4998685000006,"velocity":0.7874015748031497,"duration":0.0013888875000134249},{"name":"D7","midi":98,"time":131.6665350000006,"velocity":0.7874015748031497,"duration":0.0013888875000134249},{"name":"C#7","midi":97,"time":131.83320150000063,"velocity":0.7874015748031497,"duration":0.0006944437500067124},{"name":"C7","midi":96,"time":131.99986800000065,"velocity":0.7874015748031497,"duration":0.0013888875000134249},{"name":"C#7","midi":97,"time":132.16722894375067,"velocity":0.7874015748031497,"duration":0.0006944437500067124},{"name":"D7","midi":98,"time":132.33320100000068,"velocity":0.7874015748031497,"duration":0.0006944437500067124},{"name":"C#7","midi":97,"time":132.4998675000007,"velocity":0.7874015748031497,"duration":0.0013888875000134249},{"name":"C7","midi":96,"time":132.66653400000072,"velocity":0.7874015748031497,"duration":0.3305552250000119},{"name":"C#7","midi":97,"time":132.99986700000073,"velocity":0.7874015748031497,"duration":0.8298602812500064},{"name":"C7","midi":96,"time":133.83319950000075,"velocity":0.7874015748031497,"duration":0.0006944437500067124},{"name":"D7","midi":98,"time":133.99986600000076,"velocity":0.7874015748031497,"duration":0.0013888875000134249},{"name":"C#7","midi":97,"time":134.1672269437508,"velocity":0.7874015748031497,"duration":0.3298607812500052},{"name":"C7","midi":96,"time":134.4998655000008,"velocity":0.7874015748031497,"duration":0.0013888875000134249},{"name":"C#7","midi":97,"time":134.6665320000008,"velocity":0.7874015748031497,"duration":0.0013888875000134249},{"name":"D7","midi":98,"time":134.83319850000083,"velocity":0.7874015748031497,"duration":0.0006944437500067124},{"name":"C#7","midi":97,"time":134.99986500000085,"velocity":0.7874015748031497,"duration":0.0013888875000134249},{"name":"C7","midi":96,"time":135.16722594375088,"velocity":0.7874015748031497,"duration":0.0006944437500067124},{"name":"C#7","midi":97,"time":135.3331980000009,"velocity":0.7874015748031497,"duration":0.0006944437500067124},{"name":"D7","midi":98,"time":135.4998645000009,"velocity":0.7874015748031497,"duration":0.3298607812500052},{"name":"C#7","midi":97,"time":135.83319750000092,"velocity":0.7874015748031497,"duration":0.0006944437500067124},{"name":"C7","midi":96,"time":135.99986400000094,"velocity":0.7874015748031497,"duration":0.0013888875000134249},{"name":"C#7","midi":97,"time":136.16722494375097,"velocity":0.7874015748031497,"duration":0.0006944437500067124},{"name":"D7","midi":98,"time":136.33319700000098,"velocity":0.7874015748031497,"duration":0.0006944437500067124},{"name":"C#7","midi":97,"time":136.499863500001,"velocity":0.7874015748031497,"duration":0.0013888875000134249},{"name":"C7","midi":96,"time":136.66653000000102,"velocity":0.7874015748031497,"duration":0.3305552250000119},{"name":"C#7","midi":97,"time":136.99986300000103,"velocity":0.7874015748031497,"duration":0.3298607812500052},{"name":"D7","midi":98,"time":137.33319600000104,"velocity":0.7874015748031497,"duration":0.3305552250000119},{"name":"C#7","midi":97,"time":137.66652900000105,"velocity":0.7874015748031497,"duration":0.3305552250000119},{"name":"C7","midi":96,"time":137.99986200000106,"velocity":0.7874015748031497,"duration":0.0013888875000134249},{"name":"C#7","midi":97,"time":138.16722294375109,"velocity":0.7874015748031497,"duration":0.0006944437500067124},{"name":"C7","midi":96,"time":138.3331950000011,"velocity":0.7874015748031497,"duration":0.3305552250000119},{"name":"C#7","midi":97,"time":138.6665280000011,"velocity":0.7874015748031497,"duration":0.3305552250000119},{"name":"D7","midi":98,"time":138.99986100000112,"velocity":0.7874015748031497,"duration":0.3298607812500052},{"name":"C7","midi":96,"time":139.33319400000113,"velocity":0.7874015748031497,"duration":0.3305552250000119},{"name":"C#7","midi":97,"time":139.66652700000114,"velocity":0.7874015748031497,"duration":0.3305552250000119},{"name":"D7","midi":98,"time":139.99986000000115,"velocity":0.7874015748031497,"duration":0.0013888875000134249},{"name":"C#7","midi":97,"time":140.16722094375118,"velocity":0.7874015748031497,"duration":0.0006944437500067124},{"name":"C7","midi":96,"time":140.3331930000012,"velocity":0.7874015748031497,"duration":0.3305552250000119},{"name":"C#7","midi":97,"time":140.6665260000012,"velocity":0.7874015748031497,"duration":0.3305552250000119},{"name":"D7","midi":98,"time":140.9998590000012,"velocity":0.7874015748031497,"duration":0.6638882249999938},{"name":"C#7","midi":97,"time":141.6665250000012,"velocity":0.7874015748031497,"duration":0.9972212250000041},{"name":"C7","midi":96,"time":142.6665240000012,"velocity":0.7874015748031497,"duration":1.1631932812499883},{"name":"C#7","midi":97,"time":143.8331895000012,"velocity":0.7874015748031497,"duration":0.0006944437500067124},{"name":"D7","midi":98,"time":143.99985600000122,"velocity":0.7874015748031497,"duration":0.3298607812500052},{"name":"C#7","midi":97,"time":144.33318900000123,"velocity":0.7874015748031497,"duration":0.3305552250000119},{"name":"C7","midi":96,"time":144.66652200000124,"velocity":0.7874015748031497,"duration":0.3305552250000119},{"name":"D7","midi":98,"time":144.99985500000125,"velocity":0.7874015748031497,"duration":0.3298607812500052},{"name":"C#7","midi":97,"time":145.33318800000126,"velocity":0.7874015748031497,"duration":0.0006944437500067124},{"name":"C7","midi":96,"time":145.49985450000128,"velocity":0.7874015748031497,"duration":0.49722172500000283},{"name":"C#7","midi":97,"time":145.99985400000128,"velocity":0.7874015748031497,"duration":0.6638882249999938},{"name":"D7","midi":98,"time":146.66652000000127,"velocity":0.7874015748031497,"duration":1.330554224999986},{"name":"C7","midi":96,"time":147.99985200000125,"velocity":0.7874015748031497,"duration":1.3298597812500077},{"name":"D7","midi":98,"time":149.33318400000127,"velocity":0.7874015748031497,"duration":0.3305552250000119},{"name":"C#7","midi":97,"time":149.66651700000128,"velocity":0.7874015748031497,"duration":0.3305552250000119},{"name":"C7","midi":96,"time":149.9998500000013,"velocity":0.7874015748031497,"duration":0.3298607812500052},{"name":"C#7","midi":97,"time":150.3331830000013,"velocity":0.7874015748031497,"duration":0.3305552250000119},{"name":"D7","midi":98,"time":150.6665160000013,"velocity":0.7874015748031497,"duration":0.0013888875000134249},{"name":"C#7","midi":97,"time":150.83318250000133,"velocity":0.7874015748031497,"duration":0.0006944437500067124},{"name":"C7","midi":96,"time":150.99984900000135,"velocity":0.7874015748031497,"duration":0.3298607812500052},{"name":"C#7","midi":97,"time":151.33318200000136,"velocity":0.7874015748031497,"duration":0.3305552250000119},{"name":"D7","midi":98,"time":151.66651500000137,"velocity":0.7874015748031497,"duration":0.6631937812499871},{"name":"C#7","midi":97,"time":152.33318100000136,"velocity":0.7874015748031497,"duration":0.9965267812499974},{"name":"C7","midi":96,"time":153.33318000000136,"velocity":0.7874015748031497,"duration":1.163887724999995},{"name":"C#7","midi":97,"time":154.49984550000136,"velocity":0.7874015748031497,"duration":0.0013888875000134249},{"name":"D7","midi":98,"time":154.66651200000138,"velocity":0.7874015748031497,"duration":0.3305552250000119},{"name":"C#7","midi":97,"time":154.9998450000014,"velocity":0.7874015748031497,"duration":0.3298607812500052},{"name":"C7","midi":96,"time":155.3331780000014,"velocity":0.7874015748031497,"duration":0.3305552250000119},{"name":"C#7","midi":97,"time":155.6665110000014,"velocity":0.7874015748031497,"duration":0.3305552250000119},{"name":"C7","midi":96,"time":155.99984400000142,"velocity":0.7874015748031497,"duration":0.3298607812500052},{"name":"D7","midi":98,"time":156.33317700000143,"velocity":0.7874015748031497,"duration":0.3305552250000119},{"name":"C7","midi":96,"time":156.66651000000144,"velocity":0.7874015748031497,"duration":0.6631937812499871},{"name":"C#7","midi":97,"time":157.33317600000143,"velocity":0.7874015748031497,"duration":0.0006944437500067124},{"name":"D7","midi":98,"time":157.49984250000145,"velocity":0.7874015748031497,"duration":0.3298607812500052},{"name":"C#7","midi":97,"time":157.83317550000146,"velocity":0.7874015748031497,"duration":0.0006944437500067124},{"name":"D7","midi":98,"time":157.99984200000148,"velocity":0.7874015748031497,"duration":0.3298607812500052},{"name":"C7","midi":96,"time":158.3331750000015,"velocity":0.7874015748031497,"duration":0.0006944437500067124},{"name":"D7","midi":98,"time":158.4998415000015,"velocity":0.7874015748031497,"duration":0.3298607812500052},{"name":"C#7","midi":97,"time":158.83317450000152,"velocity":0.7874015748031497,"duration":0.0006944437500067124},{"name":"C7","midi":96,"time":158.99984100000154,"velocity":0.7874015748031497,"duration":0.3298607812500052},{"name":"C#7","midi":97,"time":159.33317400000155,"velocity":0.7874015748031497,"duration":0.3305552250000119},{"name":"D7","midi":98,"time":159.66650700000156,"velocity":0.7874015748031497,"duration":0.0013888875000134249},{"name":"C7","midi":96,"time":159.83317350000158,"velocity":0.7874015748031497,"duration":0.0006944437500067124},{"name":"C#7","midi":97,"time":159.9998400000016,"velocity":0.7874015748031497,"duration":0.49722172500000283},{"name":"D7","midi":98,"time":160.4998395000016,"velocity":0.7874015748031497,"duration":0.49722172500000283},{"name":"C#7","midi":97,"time":160.9998390000016,"velocity":0.7874015748031497,"duration":0.3298607812500052},{"name":"C7","midi":96,"time":161.3331720000016,"velocity":0.7874015748031497,"duration":0.0006944437500067124},{"name":"D7","midi":98,"time":161.49983850000163,"velocity":0.7874015748031497,"duration":0.3298607812500052},{"name":"C#7","midi":97,"time":161.83317150000164,"velocity":0.7874015748031497,"duration":0.3305552250000119},{"name":"C7","midi":96,"time":162.16719894375166,"velocity":0.7874015748031497,"duration":0.0006944437500067124},{"name":"C#7","midi":97,"time":162.33317100000167,"velocity":0.7874015748031497,"duration":0.0006944437500067124},{"name":"D7","midi":98,"time":162.4998375000017,"velocity":0.7874015748031497,"duration":0.0013888875000134249},{"name":"C#7","midi":97,"time":162.6665040000017,"velocity":0.7874015748031497,"duration":0.3305552250000119},{"name":"C7","midi":96,"time":162.99983700000172,"velocity":0.7874015748031497,"duration":0.0013888875000134249},{"name":"C#7","midi":97,"time":163.16719794375175,"velocity":0.7874015748031497,"duration":0.4965272812499961},{"name":"C7","midi":96,"time":163.66650300000174,"velocity":0.7874015748031497,"duration":0.3305552250000119},{"name":"D7","midi":98,"time":163.99983600000175,"velocity":0.7874015748031497,"duration":0.3298607812500052},{"name":"C7","midi":96,"time":164.33316900000176,"velocity":0.7874015748031497,"duration":0.3305552250000119},{"name":"C#7","midi":97,"time":164.66650200000177,"velocity":0.7874015748031497,"duration":0.3305552250000119},{"name":"D7","midi":98,"time":164.99983500000178,"velocity":0.7874015748031497,"duration":0.0013888875000134249},{"name":"C7","midi":96,"time":165.1671959437518,"velocity":0.7874015748031497,"duration":0.0006944437500067124},{"name":"C#7","midi":97,"time":165.33316800000182,"velocity":0.7874015748031497,"duration":0.4965272812499961},{"name":"D7","midi":98,"time":165.83316750000182,"velocity":0.7874015748031497,"duration":0.4965272812499961},{"name":"D7","midi":98,"time":166.33316700000182,"velocity":0.7874015748031497,"duration":0.3305552250000119},{"name":"C#7","midi":97,"time":166.66650000000183,"velocity":0.7874015748031497,"duration":0.0013888875000134249},{"name":"D7","midi":98,"time":166.83316650000185,"velocity":0.7874015748031497,"duration":0.3305552250000119},{"name":"D7","midi":98,"time":167.16719394375187,"velocity":0.7874015748031497,"duration":0.3298607812500052},{"name":"C7","midi":96,"time":167.49983250000187,"velocity":0.7874015748031497,"duration":0.0013888875000134249},{"name":"D7","midi":98,"time":167.6664990000019,"velocity":0.7874015748031497,"duration":0.0013888875000134249},{"name":"C#7","midi":97,"time":167.8331655000019,"velocity":0.7874015748031497,"duration":0.0006944437500067124},{"name":"D7","midi":98,"time":167.99983200000193,"velocity":0.7874015748031497,"duration":0.3298607812500052},{"name":"C#7","midi":97,"time":168.33316500000194,"velocity":0.7874015748031497,"duration":0.0006944437500067124},{"name":"C7","midi":96,"time":168.49983150000196,"velocity":0.7874015748031497,"duration":0.49722172500000283},{"name":"C7","midi":96,"time":168.99983100000196,"velocity":0.7874015748031497,"duration":0.3298607812500052},{"name":"C7","midi":96,"time":169.33316400000197,"velocity":0.7874015748031497,"duration":0.3305552250000119},{"name":"C7","midi":96,"time":169.66649700000198,"velocity":0.7874015748031497,"duration":0.3305552250000119},{"name":"C7","midi":96,"time":169.999830000002,"velocity":0.7874015748031497,"duration":0.6638882249999938},{"name":"D7","midi":98,"time":170.66649600000198,"velocity":0.7874015748031497,"duration":0.3305552250000119},{"name":"D7","midi":98,"time":170.999829000002,"velocity":0.7874015748031497,"duration":0.3298607812500052},{"name":"C7","midi":96,"time":171.333162000002,"velocity":0.7874015748031497,"duration":0.3305552250000119},{"name":"C#7","midi":97,"time":171.66649500000202,"velocity":0.7874015748031497,"duration":0.3305552250000119},{"name":"C#7","midi":97,"time":171.99982800000203,"velocity":0.7874015748031497,"duration":0.0013888875000134249},{"name":"D7","midi":98,"time":172.16718894375205,"velocity":0.7874015748031497,"duration":0.0006944437500067124},{"name":"C7","midi":96,"time":172.33316100000206,"velocity":0.7874015748031497,"duration":0.3305552250000119},{"name":"C7","midi":96,"time":172.66649400000207,"velocity":0.7874015748031497,"duration":0.3305552250000119},{"name":"D7","midi":98,"time":172.99982700000209,"velocity":0.7874015748031497,"duration":0.6638882249999938},{"name":"C#7","midi":97,"time":173.66649300000208,"velocity":0.7874015748031497,"duration":0.9972212250000041},{"name":"C7","midi":96,"time":174.66649200000208,"velocity":0.7874015748031497,"duration":1.1631932812499883},{"name":"C#7","midi":97,"time":175.83315750000207,"velocity":0.7874015748031497,"duration":0.0006944437500067124},{"name":"D7","midi":98,"time":175.9998240000021,"velocity":0.7874015748031497,"duration":0.3298607812500052},{"name":"D7","midi":98,"time":176.3331570000021,"velocity":0.7874015748031497,"duration":0.3305552250000119},{"name":"C7","midi":96,"time":176.6664900000021,"velocity":0.7874015748031497,"duration":0.3305552250000119},{"name":"C#7","midi":97,"time":176.99982300000212,"velocity":0.7874015748031497,"duration":0.3298607812500052},{"name":"C#7","midi":97,"time":177.33315600000213,"velocity":0.7874015748031497,"duration":0.0006944437500067124},{"name":"C7","midi":96,"time":177.49982250000215,"velocity":0.7874015748031497,"duration":0.49722172500000283},{"name":"C#7","midi":97,"time":177.99982200000215,"velocity":0.7874015748031497,"duration":0.6638882249999938},{"name":"D7","midi":98,"time":178.66648800000215,"velocity":0.7874015748031497,"duration":0.9965267812499974},{"name":"C7","midi":96,"time":179.66648700000215,"velocity":0.7874015748031497,"duration":0.3305552250000119},{"name":"C#7","midi":97,"time":179.99982000000216,"velocity":0.7874015748031497,"duration":0.3298607812500052},{"name":"D7","midi":98,"time":180.33315300000217,"velocity":0.7874015748031497,"duration":0.3298607812500052},{"name":"C7","midi":96,"time":180.66648600000218,"velocity":0.7874015748031497,"duration":0.6631937812499871},{"name":"D7","midi":98,"time":181.33315200000217,"velocity":0.7874015748031497,"duration":0.3305552250000119},{"name":"D7","midi":98,"time":181.66648500000218,"velocity":0.7874015748031497,"duration":0.3305552250000119},{"name":"C7","midi":96,"time":181.9998180000022,"velocity":0.7874015748031497,"duration":0.3298607812500052},{"name":"C#7","midi":97,"time":182.3331510000022,"velocity":0.7874015748031497,"duration":0.3305552250000119},{"name":"C7","midi":96,"time":182.6664840000022,"velocity":0.7874015748031497,"duration":0.0013888875000134249},{"name":"D7","midi":98,"time":182.83315050000223,"velocity":0.7874015748031497,"duration":0.0006944437500067124},{"name":"C7","midi":96,"time":182.99981700000225,"velocity":0.7874015748031497,"duration":0.3298607812500052},{"name":"C7","midi":96,"time":183.33315000000226,"velocity":0.7874015748031497,"duration":0.3305552250000119},{"name":"D7","midi":98,"time":183.66648300000227,"velocity":0.7874015748031497,"duration":0.6631937812499871},{"name":"C#7","midi":97,"time":184.33314900000227,"velocity":0.7874015748031497,"duration":0.9965267812499974},{"name":"C7","midi":96,"time":185.33314800000227,"velocity":0.7874015748031497,"duration":1.163887724999995},{"name":"C#7","midi":97,"time":186.49981350000226,"velocity":0.7874015748031497,"duration":0.0013888875000134249},{"name":"D7","midi":98,"time":186.66648000000228,"velocity":0.7874015748031497,"duration":0.3305552250000119},{"name":"D7","midi":98,"time":186.9998130000023,"velocity":0.7874015748031497,"duration":0.3298607812500052},{"name":"C7","midi":96,"time":187.3331460000023,"velocity":0.7874015748031497,"duration":0.3305552250000119},{"name":"C#7","midi":97,"time":187.6664790000023,"velocity":0.7874015748031497,"duration":0.3305552250000119},{"name":"D7","midi":98,"time":187.99981200000232,"velocity":0.7874015748031497,"duration":0.0013888875000134249},{"name":"C7","midi":96,"time":188.16717294375235,"velocity":0.7874015748031497,"duration":0.4965272812499961},{"name":"C#7","midi":97,"time":188.66647800000234,"velocity":0.7874015748031497,"duration":0.0013888875000134249},{"name":"D7","midi":98,"time":188.83314450000236,"velocity":0.7874015748031497,"duration":0.8298602812500064},{"name":"C#7","midi":97,"time":189.66647700000237,"velocity":0.7874015748031497,"duration":0.9972212250000041},{"name":"C7","midi":96,"time":190.66647600000238,"velocity":0.7874015748031497,"duration":1.330554224999986},{"name":"C#7","midi":97,"time":191.99980800000236,"velocity":0.7874015748031497,"duration":0.6638882249999938},{"name":"C7","midi":96,"time":192.66647400000235,"velocity":0.7874015748031497,"duration":0.0013888875000134249},{"name":"C#7","midi":97,"time":192.83314050000237,"velocity":0.7874015748031497,"duration":0.4965272812499961},{"name":"D7","midi":98,"time":193.33314000000237,"velocity":0.7874015748031497,"duration":0.6638882249999938},{"name":"C#7","midi":97,"time":193.99980600000237,"velocity":0.7874015748031497,"duration":0.6638882249999938},{"name":"C7","midi":96,"time":194.66647200000236,"velocity":0.7874015748031497,"duration":1.330554224999986},{"name":"C#7","midi":97,"time":195.99980400000234,"velocity":0.7874015748031497,"duration":1.3298597812500077},{"name":"C#7","midi":97,"time":197.33313600000236,"velocity":0.7874015748031497,"duration":0.6638882249999938},{"name":"C7","midi":96,"time":197.99980200000235,"velocity":0.7874015748031497,"duration":0.0013888875000134249},{"name":"C#7","midi":97,"time":198.16716294375237,"velocity":0.7874015748031497,"duration":0.4965272812499961},{"name":"D7","midi":98,"time":198.66646800000237,"velocity":0.7874015748031497,"duration":0.6631937812499871},{"name":"C#7","midi":97,"time":199.33313400000236,"velocity":0.7874015748031497,"duration":0.6638882249999938},{"name":"C7","midi":96,"time":199.99980000000235,"velocity":0.7874015748031497,"duration":1.3298597812500077},{"name":"C#7","midi":97,"time":201.33313200000237,"velocity":0.7874015748031497,"duration":1.330554224999986},{"name":"C#7","midi":97,"time":202.66646400000235,"velocity":0.7874015748031497,"duration":0.6631937812499871},{"name":"C7","midi":96,"time":203.33313000000234,"velocity":0.7874015748031497,"duration":0.0006944437500067124},{"name":"C#7","midi":97,"time":203.49979650000236,"velocity":0.7874015748031497,"duration":0.49722172500000283},{"name":"D7","midi":98,"time":203.99979600000236,"velocity":0.7874015748031497,"duration":0.6638882249999938},{"name":"C#7","midi":97,"time":204.66646200000235,"velocity":0.7874015748031497,"duration":0.6631937812499871},{"name":"C7","midi":96,"time":205.33312800000235,"velocity":0.7874015748031497,"duration":1.330554224999986},{"name":"C#7","midi":97,"time":206.66646000000233,"velocity":0.7874015748031497,"duration":1.330554224999986},{"name":"C7","midi":96,"time":207.99979200000232,"velocity":0.7874015748031497,"duration":0.6638882249999938},{"name":"D7","midi":98,"time":208.6664580000023,"velocity":0.7874015748031497,"duration":0.0013888875000134249},{"name":"C#7","midi":97,"time":208.83312450000233,"velocity":0.7874015748031497,"duration":0.49722172500000283},{"name":"D7","midi":98,"time":209.33312400000233,"velocity":0.7874015748031497,"duration":0.6638882249999938},{"name":"C#7","midi":97,"time":209.99979000000232,"velocity":0.7874015748031497,"duration":0.6638882249999938},{"name":"C#7","midi":97,"time":210.6664560000023,"velocity":0.7874015748031497,"duration":1.2472209750000047},{"name":"C7","midi":96,"time":211.91714919375232,"velocity":0.7874015748031497,"duration":4.082634806250013}],"controlChanges":{},"id":1,"name":"PART GUITAR","channelNumber":0,"isPercussion":false}]}}