{"__type__":"cc.JsonAsset","_name":"song_content","json":{"header":{"PPQ":480,"bpm":120,"name":""},"tempo":[{"absoluteTime":0,"seconds":0,"bpm":120}],"timeSignature":[],"startTime":0,"duration":97.49999999999966,"tracks":[{"startTime":0,"duration":0,"length":0,"notes":[],"controlChanges":{},"id":0},{"startTime":0,"duration":97.49999999999966,"length":182,"notes":[{"name":"C#7","midi":97,"time":0,"velocity":0.7874015748031497,"duration":0.6635416666666667},{"name":"C#7","midi":97,"time":0.6666666666666667,"velocity":0.7874015748031497,"duration":0.6635416666666667},{"name":"C#7","midi":97,"time":1.3333333333333335,"velocity":0.7874015748031497,"duration":0.6635416666666667},{"name":"C#7","midi":97,"time":2,"velocity":0.7874015748031497,"duration":0.6635416666666667},{"name":"C#7","midi":97,"time":2.6666666666666665,"velocity":0.7874015748031497,"duration":0.6635416666666667},{"name":"C#7","midi":97,"time":3.333333333333333,"velocity":0.7874015748031497,"duration":0.6635416666666667},{"name":"C#7","midi":97,"time":3.9999999999999996,"velocity":0.7874015748031497,"duration":0.6635416666666667},{"name":"C#7","midi":97,"time":4.666666666666666,"velocity":0.7874015748031497,"duration":0.6635416666666671},{"name":"C#7","midi":97,"time":5.333333333333333,"velocity":0.7874015748031497,"duration":0.6635416666666663},{"name":"C#7","midi":97,"time":5.999999999999999,"velocity":0.7874015748031497,"duration":0.6635416666666663},{"name":"C#7","midi":97,"time":6.666666666666665,"velocity":0.7874015748031497,"duration":0.6635416666666663},{"name":"C#7","midi":97,"time":7.333333333333331,"velocity":0.7874015748031497,"duration":0.6635416666666663},{"name":"C#7","midi":97,"time":7.999999999999997,"velocity":0.7874015748031497,"duration":0.6635416666666663},{"name":"C#7","midi":97,"time":8.666666666666664,"velocity":0.7874015748031497,"duration":0.6104166666666675},{"name":"C#7","midi":97,"time":9.333333333333332,"velocity":0.7874015748031497,"duration":0.6635416666666671},{"name":"C#7","midi":97,"time":10,"velocity":0.7874015748031497,"duration":0.6635416666666671},{"name":"C#7","midi":97,"time":10.666666666666668,"velocity":0.7874015748031497,"duration":0.0010416666666674956},{"name":"C#7","midi":97,"time":11.000000000000002,"velocity":0.7874015748031497,"duration":0.0010416666666674956},{"name":"C#7","midi":97,"time":11.333333333333336,"velocity":0.7874015748031497,"duration":0.0010416666666674956},{"name":"C#7","midi":97,"time":11.66666666666667,"velocity":0.7874015748031497,"duration":0.0010416666666674956},{"name":"C#7","midi":97,"time":12.000000000000004,"velocity":0.7874015748031497,"duration":0.0010416666666674956},{"name":"C#7","midi":97,"time":12.333333333333337,"velocity":0.7874015748031497,"duration":0.0010416666666674956},{"name":"C#7","midi":97,"time":12.666666666666671,"velocity":0.7874015748031497,"duration":0.0010416666666674956},{"name":"C#7","midi":97,"time":13.000000000000005,"velocity":0.7874015748031497,"duration":0.0010416666666674956},{"name":"C#7","midi":97,"time":13.33333333333334,"velocity":0.7874015748031497,"duration":0.6635416666666671},{"name":"C#7","midi":97,"time":14.000000000000007,"velocity":0.7874015748031497,"duration":0.0010416666666674956},{"name":"C#7","midi":97,"time":14.333333333333341,"velocity":0.7874015748031497,"duration":0.0010416666666674956},{"name":"C#7","midi":97,"time":14.666666666666675,"velocity":0.7874015748031497,"duration":0.0010416666666674956},{"name":"C#7","midi":97,"time":15.000000000000009,"velocity":0.7874015748031497,"duration":0.9968749999999993},{"name":"C#7","midi":97,"time":16.000000000000007,"velocity":0.7874015748031497,"duration":0.6635416666666671},{"name":"C#7","midi":97,"time":16.666666666666675,"velocity":0.7874015748031497,"duration":0.9968749999999993},{"name":"C#7","midi":97,"time":17.666666666666675,"velocity":0.7874015748031497,"duration":0.0010416666666657193},{"name":"C#7","midi":97,"time":18.000000000000007,"velocity":0.7874015748031497,"duration":0.0010416666666657193},{"name":"C#7","midi":97,"time":18.33333333333334,"velocity":0.7874015748031497,"duration":0.0010416666666657193},{"name":"C#7","midi":97,"time":18.66666666666667,"velocity":0.7874015748031497,"duration":0.9968749999999993},{"name":"C#7","midi":97,"time":19.66666666666667,"velocity":0.7874015748031497,"duration":0.0010416666666657193},{"name":"C#7","midi":97,"time":20.000000000000004,"velocity":0.7874015748031497,"duration":0.0010416666666657193},{"name":"C#7","midi":97,"time":20.333333333333336,"velocity":0.7874015748031497,"duration":0.0010416666666657193},{"name":"C#7","midi":97,"time":20.666666666666668,"velocity":0.7874015748031497,"duration":0.9968749999999993},{"name":"C#7","midi":97,"time":21.666666666666668,"velocity":0.7874015748031497,"duration":0.0010416666666657193},{"name":"C#7","midi":97,"time":22,"velocity":0.7874015748031497,"duration":0.0010416666666657193},{"name":"C#7","midi":97,"time":22.333333333333332,"velocity":0.7874015748031497,"duration":0.0010416666666657193},{"name":"C#7","midi":97,"time":22.666666666666664,"velocity":0.7874015748031497,"duration":0.0010416666666657193},{"name":"C#7","midi":97,"time":22.999999999999996,"velocity":0.7874015748031497,"duration":0.0010416666666657193},{"name":"C#7","midi":97,"time":23.33333333333333,"velocity":0.7874015748031497,"duration":0.0010416666666657193},{"name":"C#7","midi":97,"time":23.66666666666666,"velocity":0.7874015748031497,"duration":0.0010416666666657193},{"name":"C#7","midi":97,"time":23.999999999999993,"velocity":0.7874015748031497,"duration":0.6635416666666671},{"name":"C#7","midi":97,"time":24.66666666666666,"velocity":0.7874015748031497,"duration":0.0010416666666657193},{"name":"C#7","midi":97,"time":24.999999999999993,"velocity":0.7874015748031497,"duration":0.0010416666666657193},{"name":"C#7","midi":97,"time":25.333333333333325,"velocity":0.7874015748031497,"duration":0.0010416666666657193},{"name":"C#7","midi":97,"time":25.666666666666657,"velocity":0.7874015748031497,"duration":0.9968749999999993},{"name":"C#7","midi":97,"time":26.666666666666657,"velocity":0.7874015748031497,"duration":0.6635416666666671},{"name":"C#7","midi":97,"time":27.333333333333325,"velocity":0.7874015748031497,"duration":0.9968749999999993},{"name":"C#7","midi":97,"time":28.333333333333325,"velocity":0.7874015748031497,"duration":0.0010416666666657193},{"name":"C#7","midi":97,"time":28.666666666666657,"velocity":0.7874015748031497,"duration":0.6635416666666671},{"name":"C#7","midi":97,"time":29.333333333333325,"velocity":0.7874015748031497,"duration":0.6635416666666671},{"name":"C#7","midi":97,"time":29.999999999999993,"velocity":0.7874015748031497,"duration":0.9968749999999993},{"name":"C#7","midi":97,"time":30.999999999999993,"velocity":0.7874015748031497,"duration":0.0010416666666657193},{"name":"C#7","midi":97,"time":31.333333333333325,"velocity":0.7874015748031497,"duration":0.0010416666666657193},{"name":"C#7","midi":97,"time":31.666666666666657,"velocity":0.7874015748031497,"duration":0.0010416666666657193},{"name":"C#7","midi":97,"time":31.99999999999999,"velocity":0.7874015748031497,"duration":0.6635416666666636},{"name":"C#7","midi":97,"time":32.66666666666665,"velocity":0.7874015748031497,"duration":0.6635416666666671},{"name":"C#7","midi":97,"time":33.333333333333314,"velocity":0.7874015748031497,"duration":0.6635416666666671},{"name":"C#7","midi":97,"time":33.99999999999998,"velocity":0.7874015748031497,"duration":0.6635416666666671},{"name":"C#7","midi":97,"time":34.66666666666664,"velocity":0.7874015748031497,"duration":0.6635416666666671},{"name":"C#7","midi":97,"time":35.33333333333331,"velocity":0.7874015748031497,"duration":0.6635416666666671},{"name":"C#7","midi":97,"time":35.99999999999997,"velocity":0.7874015748031497,"duration":0.0010416666666657193},{"name":"C#7","midi":97,"time":36.33333333333331,"velocity":0.7874015748031497,"duration":0.0010416666666657193},{"name":"C#7","midi":97,"time":36.66666666666664,"velocity":0.7874015748031497,"duration":0.0010416666666657193},{"name":"C#7","midi":97,"time":36.99999999999998,"velocity":0.7874015748031497,"duration":0.0010416666666657193},{"name":"C#7","midi":97,"time":37.333333333333314,"velocity":0.7874015748031497,"duration":0.6635416666666671},{"name":"C#7","midi":97,"time":37.99999999999998,"velocity":0.7874015748031497,"duration":0.6635416666666671},{"name":"C#7","midi":97,"time":38.66666666666664,"velocity":0.7874015748031497,"duration":0.6635416666666671},{"name":"C#7","midi":97,"time":39.33333333333331,"velocity":0.7874015748031497,"duration":0.6635416666666671},{"name":"C#7","midi":97,"time":39.99999999999997,"velocity":0.7874015748031497,"duration":0.6635416666666671},{"name":"C#7","midi":97,"time":40.666666666666636,"velocity":0.7874015748031497,"duration":0.6635416666666671},{"name":"C#7","midi":97,"time":41.3333333333333,"velocity":0.7874015748031497,"duration":0.0010416666666657193},{"name":"C#7","midi":97,"time":41.666666666666636,"velocity":0.7874015748031497,"duration":0.0010416666666657193},{"name":"C#7","midi":97,"time":41.99999999999997,"velocity":0.7874015748031497,"duration":0.0010416666666657193},{"name":"C#7","midi":97,"time":42.33333333333331,"velocity":0.7874015748031497,"duration":0.0010416666666657193},{"name":"C#7","midi":97,"time":42.66666666666664,"velocity":0.7874015748031497,"duration":0.6635416666666671},{"name":"C#7","midi":97,"time":43.33333333333331,"velocity":0.7874015748031497,"duration":0.6635416666666671},{"name":"C#7","midi":97,"time":43.99999999999997,"velocity":0.7874015748031497,"duration":0.0010416666666657193},{"name":"C#7","midi":97,"time":44.33333333333331,"velocity":0.7874015748031497,"duration":0.0010416666666657193},{"name":"C#7","midi":97,"time":44.66666666666664,"velocity":0.7874015748031497,"duration":0.0010416666666657193},{"name":"C#7","midi":97,"time":44.99999999999998,"velocity":0.7874015748031497,"duration":0.0010416666666657193},{"name":"C#7","midi":97,"time":45.333333333333314,"velocity":0.7874015748031497,"duration":0.0010416666666657193},{"name":"C#7","midi":97,"time":45.66666666666665,"velocity":0.7874015748031497,"duration":0.0010416666666657193},{"name":"C#7","midi":97,"time":45.999999999999986,"velocity":0.7874015748031497,"duration":0.6635416666666671},{"name":"C#7","midi":97,"time":46.66666666666665,"velocity":0.7874015748031497,"duration":0.0010416666666657193},{"name":"C#7","midi":97,"time":46.999999999999986,"velocity":0.7874015748031497,"duration":0.0010416666666657193},{"name":"C#7","midi":97,"time":47.33333333333332,"velocity":0.7874015748031497,"duration":0.0010416666666657193},{"name":"C#7","midi":97,"time":47.66666666666666,"velocity":0.7874015748031497,"duration":0.0010416666666657193},{"name":"C#7","midi":97,"time":47.99999999999999,"velocity":0.7874015748031497,"duration":0.6635416666666671},{"name":"C#7","midi":97,"time":48.66666666666666,"velocity":0.7874015748031497,"duration":0.6635416666666671},{"name":"C#7","midi":97,"time":49.33333333333332,"velocity":0.7874015748031497,"duration":0.0010416666666657193},{"name":"C#7","midi":97,"time":49.66666666666666,"velocity":0.7874015748031497,"duration":0.0010416666666657193},{"name":"C#7","midi":97,"time":49.99999999999999,"velocity":0.7874015748031497,"duration":0.0010416666666657193},{"name":"C#7","midi":97,"time":50.33333333333333,"velocity":0.7874015748031497,"duration":0.0010416666666657193},{"name":"C#7","midi":97,"time":50.666666666666664,"velocity":0.7874015748031497,"duration":0.0010416666666657193},{"name":"C#7","midi":97,"time":51,"velocity":0.7874015748031497,"duration":0.0010416666666657193},{"name":"C#7","midi":97,"time":51.333333333333336,"velocity":0.7874015748031497,"duration":0.0010416666666657193},{"name":"C#7","midi":97,"time":51.66666666666667,"velocity":0.7874015748031497,"duration":1.9968750000000028},{"name":"D7","midi":98,"time":51.66666666666667,"velocity":0.7874015748031497,"duration":1.9968750000000028},{"name":"C#7","midi":97,"time":53.66666666666667,"velocity":0.7874015748031497,"duration":0.0010416666666657193},{"name":"C#7","midi":97,"time":54.00000000000001,"velocity":0.7874015748031497,"duration":0.0010416666666657193},{"name":"C#7","midi":97,"time":54.33333333333334,"velocity":0.7874015748031497,"duration":0.0010416666666657193},{"name":"C#7","midi":97,"time":54.66666666666668,"velocity":0.7874015748031497,"duration":0.6635416666666671},{"name":"C#7","midi":97,"time":55.33333333333334,"velocity":0.7874015748031497,"duration":0.6635416666666671},{"name":"C#7","midi":97,"time":56.00000000000001,"velocity":0.7874015748031497,"duration":0.6635416666666671},{"name":"C#7","midi":97,"time":56.66666666666667,"velocity":0.7874015748031497,"duration":0.6635416666666671},{"name":"C#7","midi":97,"time":57.333333333333336,"velocity":0.7874015748031497,"duration":0.0010416666666657193},{"name":"C#7","midi":97,"time":57.66666666666667,"velocity":0.7874015748031497,"duration":0.0010416666666657193},{"name":"C#7","midi":97,"time":58.00000000000001,"velocity":0.7874015748031497,"duration":0.9968750000000028},{"name":"C#7","midi":97,"time":59.00000000000001,"velocity":0.7874015748031497,"duration":0.0010416666666657193},{"name":"C#7","midi":97,"time":59.33333333333334,"velocity":0.7874015748031497,"duration":0.0010416666666657193},{"name":"C#7","midi":97,"time":59.66666666666668,"velocity":0.7874015748031497,"duration":0.0010416666666657193},{"name":"C#7","midi":97,"time":60.000000000000014,"velocity":0.7874015748031497,"duration":0.6635416666666671},{"name":"C#7","midi":97,"time":60.66666666666668,"velocity":0.7874015748031497,"duration":0.9968750000000028},{"name":"C#7","midi":97,"time":61.66666666666668,"velocity":0.7874015748031497,"duration":0.0010416666666657193},{"name":"C#7","midi":97,"time":62.000000000000014,"velocity":0.7874015748031497,"duration":0.0010416666666657193},{"name":"C#7","midi":97,"time":62.33333333333335,"velocity":0.7874015748031497,"duration":0.0010416666666657193},{"name":"C#7","midi":97,"time":62.666666666666686,"velocity":0.7874015748031497,"duration":0.9968750000000028},{"name":"C#7","midi":97,"time":63.666666666666686,"velocity":0.7874015748031497,"duration":0.66354166666666},{"name":"C#7","midi":97,"time":64.33333333333334,"velocity":0.7874015748031497,"duration":0.0010416666666657193},{"name":"C#7","midi":97,"time":64.66666666666667,"velocity":0.7874015748031497,"duration":0.0010416666666657193},{"name":"C#7","midi":97,"time":65,"velocity":0.7874015748031497,"duration":0.0010416666666657193},{"name":"C#7","midi":97,"time":65.33333333333333,"velocity":0.7874015748031497,"duration":0.66354166666666},{"name":"C#7","midi":97,"time":65.99999999999999,"velocity":0.7874015748031497,"duration":0.9968750000000028},{"name":"C#7","midi":97,"time":66.99999999999999,"velocity":0.7874015748031497,"duration":0.0010416666666657193},{"name":"C#7","midi":97,"time":67.33333333333331,"velocity":0.7874015748031497,"duration":0.0010416666666657193},{"name":"C#7","midi":97,"time":67.66666666666664,"velocity":0.7874015748031497,"duration":0.0010416666666657193},{"name":"C#7","midi":97,"time":67.99999999999997,"velocity":0.7874015748031497,"duration":0.66354166666666},{"name":"C#7","midi":97,"time":68.66666666666663,"velocity":0.7874015748031497,"duration":0.66354166666666},{"name":"C#7","midi":97,"time":69.33333333333329,"velocity":0.7874015748031497,"duration":0.66354166666666},{"name":"C#7","midi":97,"time":69.99999999999994,"velocity":0.7874015748031497,"duration":0.0010416666666657193},{"name":"C#7","midi":97,"time":70.33333333333327,"velocity":0.7874015748031497,"duration":0.0010416666666657193},{"name":"C#7","midi":97,"time":70.6666666666666,"velocity":0.7874015748031497,"duration":0.0010416666666657193},{"name":"C#7","midi":97,"time":70.99999999999993,"velocity":0.7874015748031497,"duration":0.0010416666666657193},{"name":"C#7","midi":97,"time":71.33333333333326,"velocity":0.7874015748031497,"duration":0.0010416666666657193},{"name":"C#7","midi":97,"time":71.66666666666659,"velocity":0.7874015748031497,"duration":0.0010416666666657193},{"name":"C#7","midi":97,"time":71.99999999999991,"velocity":0.7874015748031497,"duration":0.0010416666666657193},{"name":"C#7","midi":97,"time":72.33333333333324,"velocity":0.7874015748031497,"duration":0.0010416666666657193},{"name":"C#7","midi":97,"time":72.66666666666657,"velocity":0.7874015748031497,"duration":0.0010416666666657193},{"name":"C#7","midi":97,"time":72.9999999999999,"velocity":0.7874015748031497,"duration":0.0010416666666657193},{"name":"C#7","midi":97,"time":73.33333333333323,"velocity":0.7874015748031497,"duration":0.9968750000000028},{"name":"C#7","midi":97,"time":74.33333333333323,"velocity":0.7874015748031497,"duration":0.0010416666666657193},{"name":"C#7","midi":97,"time":74.66666666666656,"velocity":0.7874015748031497,"duration":0.66354166666666},{"name":"C#7","midi":97,"time":75.33333333333321,"velocity":0.7874015748031497,"duration":0.66354166666666},{"name":"C#7","midi":97,"time":75.99999999999987,"velocity":0.7874015748031497,"duration":0.66354166666666},{"name":"C#7","midi":97,"time":76.66666666666653,"velocity":0.7874015748031497,"duration":0.66354166666666},{"name":"C#7","midi":97,"time":77.33333333333319,"velocity":0.7874015748031497,"duration":0.66354166666666},{"name":"C#7","midi":97,"time":77.99999999999984,"velocity":0.7874015748031497,"duration":0.66354166666666},{"name":"C#7","midi":97,"time":78.6666666666665,"velocity":0.7874015748031497,"duration":0.9968750000000028},{"name":"C#7","midi":97,"time":79.6666666666665,"velocity":0.7874015748031497,"duration":0.0010416666666657193},{"name":"C#7","midi":97,"time":79.99999999999983,"velocity":0.7874015748031497,"duration":0.66354166666666},{"name":"C#7","midi":97,"time":80.66666666666649,"velocity":0.7874015748031497,"duration":0.66354166666666},{"name":"C#7","midi":97,"time":81.33333333333314,"velocity":0.7874015748031497,"duration":0.66354166666666},{"name":"C#7","midi":97,"time":81.9999999999998,"velocity":0.7874015748031497,"duration":0.66354166666666},{"name":"C#7","midi":97,"time":82.66666666666646,"velocity":0.7874015748031497,"duration":0.9968750000000028},{"name":"C#7","midi":97,"time":83.66666666666646,"velocity":0.7874015748031497,"duration":0.0010416666666657193},{"name":"C#7","midi":97,"time":83.99999999999979,"velocity":0.7874015748031497,"duration":0.9968750000000028},{"name":"C#7","midi":97,"time":84.99999999999979,"velocity":0.7874015748031497,"duration":0.0010416666666657193},{"name":"C#7","midi":97,"time":85.33333333333312,"velocity":0.7874015748031497,"duration":0.66354166666666},{"name":"C#7","midi":97,"time":85.99999999999977,"velocity":0.7874015748031497,"duration":0.66354166666666},{"name":"C#7","midi":97,"time":86.66666666666643,"velocity":0.7874015748031497,"duration":0.66354166666666},{"name":"C#7","midi":97,"time":87.33333333333309,"velocity":0.7874015748031497,"duration":0.66354166666666},{"name":"C#7","midi":97,"time":87.99999999999974,"velocity":0.7874015748031497,"duration":0.66354166666666},{"name":"C#7","midi":97,"time":88.6666666666664,"velocity":0.7874015748031497,"duration":0.66354166666666},{"name":"C#7","midi":97,"time":89.33333333333306,"velocity":0.7874015748031497,"duration":0.9968750000000028},{"name":"C#7","midi":97,"time":90.33333333333306,"velocity":0.7874015748031497,"duration":0.0010416666666657193},{"name":"C#7","midi":97,"time":90.66666666666639,"velocity":0.7874015748031497,"duration":0.66354166666666},{"name":"C#7","midi":97,"time":91.33333333333304,"velocity":0.7874015748031497,"duration":0.66354166666666},{"name":"C#7","midi":97,"time":91.9999999999997,"velocity":0.7874015748031497,"duration":0.66354166666666},{"name":"C#7","midi":97,"time":92.66666666666636,"velocity":0.7874015748031497,"duration":0.66354166666666},{"name":"C#7","midi":97,"time":93.33333333333302,"velocity":0.7874015748031497,"duration":0.9968750000000028},{"name":"C#7","midi":97,"time":94.33333333333302,"velocity":0.7874015748031497,"duration":0.0010416666666657193},{"name":"C#7","midi":97,"time":94.66666666666634,"velocity":0.7874015748031497,"duration":0.9968750000000028},{"name":"C#7","midi":97,"time":95.66666666666634,"velocity":0.7874015748031497,"duration":0.0010416666666657193},{"name":"C#7","midi":97,"time":95.99999999999967,"velocity":0.7874015748031497,"duration":0.66354166666666},{"name":"C#7","midi":97,"time":96.66666666666633,"velocity":0.7874015748031497,"duration":0.8333333333333286},{"name":"D7","midi":98,"time":96.66666666666633,"velocity":0.7874015748031497,"duration":0.8333333333333286}],"controlChanges":{},"id":1,"name":"PART GUITAR","channelNumber":0,"isPercussion":false}]}}